<svg id="Layer_1" data-name="Layer 1" xmlns="http://www.w3.org/2000/svg" viewBox="0 0 769.09 256.56"><defs><style>.cls-1{fill:#f26722;}.cls-2{fill:none;}.cls-3{font-size:64.54px;fill:#1f3c4d;font-family:Poppins-Bold, Poppins;font-weight:700;}.cls-4{font-family:Poppins-Light, Poppins;font-weight:300;}</style></defs><path class="cls-1" d="M84.14,127.41A64.28,64.28,0,0,1,94.52,92.3a52.61,52.61,0,1,0,0,70.21A64.22,64.22,0,0,1,84.14,127.41Z" transform="translate(-2.74 -0.92)"/><path class="cls-2" d="M198.76,50a49.06,49.06,0,1,0-81.34,36.91,52.6,52.6,0,0,1,64.56,0A49,49,0,0,0,198.76,50Z" transform="translate(-2.74 -0.92)"/><path class="cls-2" d="M118.38,170.69a49.06,49.06,0,1,0,62.65,0,52.62,52.62,0,0,1-62.65,0Z" transform="translate(-2.74 -0.92)"/><path class="cls-1" d="M117.42,86.89a49,49,0,0,0,64.56,0,52.6,52.6,0,0,0-64.56,0Z" transform="translate(-2.74 -0.92)"/><path class="cls-1" d="M189.7,162.58a52.6,52.6,0,0,0,.74-67.43,60.74,60.74,0,0,1-81.48,0,52.6,52.6,0,0,0,.74,67.43,60.74,60.74,0,0,1,80,0Z" transform="translate(-2.74 -0.92)"/><path class="cls-1" d="M118.38,170.69a52.62,52.62,0,0,0,62.65,0,49,49,0,0,0-62.65,0Z" transform="translate(-2.74 -0.92)"/><path class="cls-2" d="M190.44,95.15A52.89,52.89,0,0,0,182,86.89a49,49,0,0,1-64.56,0A52.89,52.89,0,0,0,109,95.15a60.74,60.74,0,0,0,81.48,0Z" transform="translate(-2.74 -0.92)"/><path class="cls-2" d="M118.38,170.69a49,49,0,0,1,62.65,0,52.87,52.87,0,0,0,8.67-8.11,60.74,60.74,0,0,0-80,0A52.94,52.94,0,0,0,118.38,170.69Z" transform="translate(-2.74 -0.92)"/><text class="cls-3" transform="translate(217.81 156.3)">SOCCER<tspan class="cls-4" x="265.77" y="0">GRADING</tspan></text></svg>