<svg id="Layer_1" data-name="Layer 1" xmlns="http://www.w3.org/2000/svg" viewBox="0 0 821.59 275.24"><defs><style>.cls-1{fill:#f26722;}.cls-2{fill:none;}.cls-3{font-size:70.78px;fill:#1f3c4d;font-family:Poppins-Bold, Poppins;font-weight:700;}.cls-4{font-family:Poppins-Light, Poppins;font-weight:300;letter-spacing:0em;}</style></defs><path class="cls-1" d="M89,136.28a68.94,68.94,0,0,1,11.13-37.67,56.44,56.44,0,1,0,0,75.33A69,69,0,0,1,89,136.28Z" transform="translate(-1.71 -0.57)"/><path class="cls-2" d="M212,53.21a52.64,52.64,0,1,0-87.27,39.6,56.41,56.41,0,0,1,69.26,0A52.53,52.53,0,0,0,212,53.21Z" transform="translate(-1.71 -0.57)"/><path class="cls-2" d="M125.76,182.7a52.64,52.64,0,1,0,67.21,0,56.42,56.42,0,0,1-67.21,0Z" transform="translate(-1.71 -0.57)"/><path class="cls-1" d="M124.73,92.81a52.53,52.53,0,0,0,69.26,0,56.41,56.41,0,0,0-69.26,0Z" transform="translate(-1.71 -0.57)"/><path class="cls-1" d="M202.28,174a56.45,56.45,0,0,0,.79-72.34,65.18,65.18,0,0,1-87.42,0,56.43,56.43,0,0,0,.8,72.34,65.18,65.18,0,0,1,85.83,0Z" transform="translate(-1.71 -0.57)"/><path class="cls-1" d="M125.76,182.7a56.42,56.42,0,0,0,67.21,0,52.55,52.55,0,0,0-67.21,0Z" transform="translate(-1.71 -0.57)"/><path class="cls-2" d="M203.07,101.67A56.38,56.38,0,0,0,194,92.81a52.53,52.53,0,0,1-69.26,0,56.79,56.79,0,0,0-9.08,8.86,65.18,65.18,0,0,0,87.42,0Z" transform="translate(-1.71 -0.57)"/><path class="cls-2" d="M125.76,182.7a52.55,52.55,0,0,1,67.21,0,57.21,57.21,0,0,0,9.31-8.69,65.18,65.18,0,0,0-85.83,0A56.8,56.8,0,0,0,125.76,182.7Z" transform="translate(-1.71 -0.57)"/><text class="cls-3" transform="translate(233.66 167.68)">SPORTS<tspan class="cls-4" x="274.82" y="0">GRADING</tspan></text></svg>