<svg id="Layer_1" data-name="Layer 1" xmlns="http://www.w3.org/2000/svg" viewBox="0 0 824.72 271.39"><defs><style>.cls-1{fill:#f26722;}.cls-2{fill:none;}.cls-3{font-size:74.57px;fill:#1f3c4d;font-family:Poppins-Bold, Poppins;font-weight:700;}.cls-4{font-family:Poppins-Light, Poppins;font-weight:300;}</style></defs><path class="cls-1" d="M92.44,135.89a67.91,67.91,0,0,1,11-37.13,55.64,55.64,0,1,0,0,74.26A68,68,0,0,1,92.44,135.89Z" transform="translate(-6.33 -2.08)"/><path class="cls-2" d="M213.68,54a51.9,51.9,0,1,0-86,39.05,55.64,55.64,0,0,1,68.29,0A51.79,51.79,0,0,0,213.68,54Z" transform="translate(-6.33 -2.08)"/><path class="cls-2" d="M128.65,181.67a51.9,51.9,0,1,0,66.27,0,55.65,55.65,0,0,1-66.27,0Z" transform="translate(-6.33 -2.08)"/><path class="cls-1" d="M127.64,93a51.79,51.79,0,0,0,68.29,0,55.64,55.64,0,0,0-68.29,0Z" transform="translate(-6.33 -2.08)"/><path class="cls-1" d="M204.1,173.1a55.63,55.63,0,0,0,.78-71.33,64.27,64.27,0,0,1-86.19,0,55.63,55.63,0,0,0,.78,71.33,64.26,64.26,0,0,1,84.63,0Z" transform="translate(-6.33 -2.08)"/><path class="cls-1" d="M128.65,181.67a55.65,55.65,0,0,0,66.27,0,51.78,51.78,0,0,0-66.27,0Z" transform="translate(-6.33 -2.08)"/><path class="cls-2" d="M204.88,101.77A55.64,55.64,0,0,0,195.93,93a51.79,51.79,0,0,1-68.29,0,56.06,56.06,0,0,0-9,8.74,64.27,64.27,0,0,0,86.19,0Z" transform="translate(-6.33 -2.08)"/><path class="cls-2" d="M128.65,181.67a51.78,51.78,0,0,1,66.27,0,56.47,56.47,0,0,0,9.18-8.57,64.26,64.26,0,0,0-84.63,0A56.47,56.47,0,0,0,128.65,181.67Z" transform="translate(-6.33 -2.08)"/><text class="cls-3" transform="translate(230.39 165.33)">TENNIS<tspan class="cls-4" x="264.43" y="0">GRADING</tspan></text></svg>